<?xml version="1.0" encoding="utf-8"?>
<!-- Generator: Circuit Diagram, cdlibrary.dll 4.0.0.0 -->
<!DOCTYPE svg PUBLIC "-//W3C//DTD SVG 1.1//EN" "http://www.w3.org/Graphics/SVG/1.1/DTD/svg11.dtd">
<svg version="1.1" width="440" height="400" xmlns="http://www.w3.org/2000/svg">
	<line x1="140" y1="260" x2="140" y2="360" style="stroke:rgb(0, 0, 0);stroke-linecap:square;stroke-width:2" />
	<line x1="140" y1="210" x2="140" y2="230" style="stroke:rgb(0, 0, 0);stroke-linecap:square;stroke-width:2" />
	<line x1="140" y1="140" x2="140" y2="160" style="stroke:rgb(0, 0, 0);stroke-linecap:square;stroke-width:2" />
	<line x1="140" y1="140" x2="230" y2="140" style="stroke:rgb(0, 0, 0);stroke-linecap:square;stroke-width:2" />
	<line x1="70" y1="260" x2="70" y2="360" style="stroke:rgb(0, 0, 0);stroke-linecap:square;stroke-width:2" />
	<line x1="70" y1="180" x2="70" y2="230" style="stroke:rgb(0, 0, 0);stroke-linecap:square;stroke-width:2" />
	<line x1="70" y1="120" x2="70" y2="130" style="stroke:rgb(0, 0, 0);stroke-linecap:square;stroke-width:2" />
	<line x1="70" y1="120" x2="230" y2="120" style="stroke:rgb(0, 0, 0);stroke-linecap:square;stroke-width:2" />
	<line x1="140" y1="230" x2="140" y2="260" style="stroke:rgb(0, 0, 0);stroke-linecap:square;stroke-width:2" />
	<path d="M 140,252 M 132,252 L 148,252 M 140,252 L 148,237 L 132,237 L 140,252" style="fill-opacity:0;fill:rgb(0, 0, 0);stroke:rgb(0, 0, 0);stroke-linecap:square;stroke-width:2" />
	<path d="M 140,250 M 151,248 L 159,256 M 160,257 L 158,253 L 156,255 L 160,257 L 158,253" style="fill-opacity:0;fill:rgb(0, 0, 0);stroke:rgb(0, 0, 0);stroke-linecap:square;stroke-width:2" />
	<path d="M 140,250 M 144,254 L 152,262 M 153,263 L 151,259 L 149,261 L 153,263 L 151,259" style="fill-opacity:0;fill:rgb(0, 0, 0);stroke:rgb(0, 0, 0);stroke-linecap:square;stroke-width:2" />
	<line x1="70" y1="230" x2="70" y2="260" style="stroke:rgb(0, 0, 0);stroke-linecap:square;stroke-width:2" />
	<path d="M 70,252 M 62,252 L 78,252 M 70,252 L 78,237 L 62,237 L 70,252" style="fill-opacity:0;fill:rgb(0, 0, 0);stroke:rgb(0, 0, 0);stroke-linecap:square;stroke-width:2" />
	<path d="M 70,250 M 81,248 L 89,256 M 90,257 L 88,253 L 86,255 L 90,257 L 88,253" style="fill-opacity:0;fill:rgb(0, 0, 0);stroke:rgb(0, 0, 0);stroke-linecap:square;stroke-width:2" />
	<path d="M 70,250 M 74,254 L 82,262 M 83,263 L 81,259 L 79,261 L 83,263 L 81,259" style="fill-opacity:0;fill:rgb(0, 0, 0);stroke:rgb(0, 0, 0);stroke-linecap:square;stroke-width:2" />
	<line x1="140" y1="160" x2="140" y2="165" style="stroke:rgb(0, 0, 0);stroke-linecap:square;stroke-width:2" />
	<line x1="140" y1="205" x2="140" y2="210" style="stroke:rgb(0, 0, 0);stroke-linecap:square;stroke-width:2" />
	<rect x="132" y="165" width="16" height="40" style="fill-opacity:0;fill:rgb(0, 0, 0);stroke:rgb(0, 0, 0);stroke-width:2" />
	<text x="126" y="185" style="font-family:Arial;font-size:11px;text-anchor:end" dominant-baseline="middle" transform="rotate(0, 126, 185)">2.2 kΩ</text>
	<line x1="70" y1="130" x2="70" y2="135" style="stroke:rgb(0, 0, 0);stroke-linecap:square;stroke-width:2" />
	<line x1="70" y1="175" x2="70" y2="180" style="stroke:rgb(0, 0, 0);stroke-linecap:square;stroke-width:2" />
	<rect x="62" y="135" width="16" height="40" style="fill-opacity:0;fill:rgb(0, 0, 0);stroke:rgb(0, 0, 0);stroke-width:2" />
	<text x="56" y="155" style="font-family:Arial;font-size:11px;text-anchor:end" dominant-baseline="middle" transform="rotate(0, 56, 155)">2.2 kΩ</text>
	<line x1="190" y1="90" x2="230" y2="90" style="stroke:rgb(0, 0, 0);stroke-linecap:square;stroke-width:2" />
	<line x1="120" y1="90" x2="140" y2="90" style="stroke:rgb(0, 0, 0);stroke-linecap:square;stroke-width:2" />
	<line x1="20" y1="90" x2="90" y2="90" style="stroke:rgb(0, 0, 0);stroke-linecap:square;stroke-width:2" />
	<line x1="20" y1="90" x2="20" y2="360" style="stroke:rgb(0, 0, 0);stroke-linecap:square;stroke-width:2" />
	<line x1="20" y1="360" x2="420" y2="360" style="stroke:rgb(0, 0, 0);stroke-linecap:square;stroke-width:2" />
	<line x1="420" y1="60" x2="420" y2="360" style="stroke:rgb(0, 0, 0);stroke-linecap:square;stroke-width:2" />
	<line x1="350" y1="60" x2="420" y2="60" style="stroke:rgb(0, 0, 0);stroke-linecap:square;stroke-width:2" />
	<line x1="90" y1="90" x2="91" y2="90" style="stroke:rgb(0, 0, 0);stroke-linecap:square;stroke-width:2" />
	<line x1="119" y1="90" x2="120" y2="90" style="stroke:rgb(0, 0, 0);stroke-linecap:square;stroke-width:2" />
	<ellipse cx="94" cy="90" rx="3" ry="3" style="fill-opacity:0;fill:rgb(0, 0, 0);stroke:rgb(0, 0, 0);stroke-width:2" />
	<ellipse cx="116" cy="90" rx="3" ry="3" style="fill-opacity:0;fill:rgb(0, 0, 0);stroke:rgb(0, 0, 0);stroke-width:2" />
	<line x1="93" y1="82" x2="117" y2="82" style="stroke:rgb(0, 0, 0);stroke-linecap:square;stroke-width:2" />
	<line x1="99" y1="76" x2="111" y2="76" style="stroke:rgb(0, 0, 0);stroke-linecap:square;stroke-width:2" />
	<line x1="105" y1="76" x2="105" y2="82" style="stroke:rgb(0, 0, 0);stroke-linecap:square;stroke-width:2" />
	<line x1="140" y1="90" x2="145" y2="90" style="stroke:rgb(0, 0, 0);stroke-linecap:square;stroke-width:2" />
	<line x1="185" y1="90" x2="190" y2="90" style="stroke:rgb(0, 0, 0);stroke-linecap:square;stroke-width:2" />
	<rect x="145" y="82" width="40" height="16" style="fill-opacity:0;fill:rgb(0, 0, 0);stroke:rgb(0, 0, 0);stroke-width:2" />
	<text x="165" y="76" style="font-family:Arial;font-size:11px;text-anchor:middle" dominant-baseline="baseline" transform="rotate(0, 165, 76)">10 kΩ</text>
	<text x="290" y="30" style="font-family:Arial;font-size:11px;text-anchor:middle" dominant-baseline="middle" transform="rotate(0, 290, 30)">Arduino Nano v3</text>
	<rect x="240" y="40" width="100" height="160" style="fill-opacity:0;fill:rgb(0, 0, 0);stroke:rgb(0, 0, 0);stroke-width:2" />
	<line x1="230" y1="50" x2="240" y2="50" style="stroke:rgb(0, 0, 0);stroke-linecap:square;stroke-width:2" />
	<text x="244" y="50" style="font-family:Arial;font-size:11px;text-anchor:start" dominant-baseline="middle" transform="rotate(0, 244, 50)">D1 TX</text>
	<line x1="340" y1="50" x2="350" y2="50" style="stroke:rgb(0, 0, 0);stroke-linecap:square;stroke-width:2" />
	<text x="336" y="50" style="font-family:Arial;font-size:11px;text-anchor:end" dominant-baseline="middle" transform="rotate(0, 336, 50)">Vin</text>
	<line x1="230" y1="60" x2="240" y2="60" style="stroke:rgb(0, 0, 0);stroke-linecap:square;stroke-width:2" />
	<text x="244" y="60" style="font-family:Arial;font-size:11px;text-anchor:start" dominant-baseline="middle" transform="rotate(0, 244, 60)">D0 RX</text>
	<line x1="340" y1="60" x2="350" y2="60" style="stroke:rgb(0, 0, 0);stroke-linecap:square;stroke-width:2" />
	<text x="336" y="60" style="font-family:Arial;font-size:11px;text-anchor:end" dominant-baseline="middle" transform="rotate(0, 336, 60)">GND</text>
	<line x1="230" y1="70" x2="240" y2="70" style="stroke:rgb(0, 0, 0);stroke-linecap:square;stroke-width:2" />
	<text x="244" y="70" style="font-family:Arial;font-size:11px;text-anchor:start" dominant-baseline="middle" transform="rotate(0, 244, 70)">RST</text>
	<line x1="340" y1="70" x2="350" y2="70" style="stroke:rgb(0, 0, 0);stroke-linecap:square;stroke-width:2" />
	<text x="336" y="70" style="font-family:Arial;font-size:11px;text-anchor:end" dominant-baseline="middle" transform="rotate(0, 336, 70)">RST</text>
	<line x1="230" y1="80" x2="240" y2="80" style="stroke:rgb(0, 0, 0);stroke-linecap:square;stroke-width:2" />
	<text x="244" y="80" style="font-family:Arial;font-size:11px;text-anchor:start" dominant-baseline="middle" transform="rotate(0, 244, 80)">GND</text>
	<line x1="340" y1="80" x2="350" y2="80" style="stroke:rgb(0, 0, 0);stroke-linecap:square;stroke-width:2" />
	<text x="336" y="80" style="font-family:Arial;font-size:11px;text-anchor:end" dominant-baseline="middle" transform="rotate(0, 336, 80)">5V</text>
	<line x1="230" y1="90" x2="240" y2="90" style="stroke:rgb(0, 0, 0);stroke-linecap:square;stroke-width:2" />
	<text x="244" y="90" style="font-family:Arial;font-size:11px;text-anchor:start" dominant-baseline="middle" transform="rotate(0, 244, 90)">D2</text>
	<line x1="340" y1="90" x2="350" y2="90" style="stroke:rgb(0, 0, 0);stroke-linecap:square;stroke-width:2" />
	<text x="336" y="90" style="font-family:Arial;font-size:11px;text-anchor:end" dominant-baseline="middle" transform="rotate(0, 336, 90)">A7</text>
	<line x1="230" y1="100" x2="240" y2="100" style="stroke:rgb(0, 0, 0);stroke-linecap:square;stroke-width:2" />
	<text x="244" y="100" style="font-family:Arial;font-size:11px;text-anchor:start" dominant-baseline="middle" transform="rotate(0, 244, 100)">D3</text>
	<line x1="340" y1="100" x2="350" y2="100" style="stroke:rgb(0, 0, 0);stroke-linecap:square;stroke-width:2" />
	<text x="336" y="100" style="font-family:Arial;font-size:11px;text-anchor:end" dominant-baseline="middle" transform="rotate(0, 336, 100)">A6</text>
	<line x1="230" y1="110" x2="240" y2="110" style="stroke:rgb(0, 0, 0);stroke-linecap:square;stroke-width:2" />
	<text x="244" y="110" style="font-family:Arial;font-size:11px;text-anchor:start" dominant-baseline="middle" transform="rotate(0, 244, 110)">D4</text>
	<line x1="340" y1="110" x2="350" y2="110" style="stroke:rgb(0, 0, 0);stroke-linecap:square;stroke-width:2" />
	<text x="336" y="110" style="font-family:Arial;font-size:11px;text-anchor:end" dominant-baseline="middle" transform="rotate(0, 336, 110)">A5</text>
	<line x1="230" y1="120" x2="240" y2="120" style="stroke:rgb(0, 0, 0);stroke-linecap:square;stroke-width:2" />
	<text x="244" y="120" style="font-family:Arial;font-size:11px;text-anchor:start" dominant-baseline="middle" transform="rotate(0, 244, 120)">D5</text>
	<line x1="340" y1="120" x2="350" y2="120" style="stroke:rgb(0, 0, 0);stroke-linecap:square;stroke-width:2" />
	<text x="336" y="120" style="font-family:Arial;font-size:11px;text-anchor:end" dominant-baseline="middle" transform="rotate(0, 336, 120)">A4</text>
	<line x1="230" y1="130" x2="240" y2="130" style="stroke:rgb(0, 0, 0);stroke-linecap:square;stroke-width:2" />
	<text x="244" y="130" style="font-family:Arial;font-size:11px;text-anchor:start" dominant-baseline="middle" transform="rotate(0, 244, 130)">D6</text>
	<line x1="340" y1="130" x2="350" y2="130" style="stroke:rgb(0, 0, 0);stroke-linecap:square;stroke-width:2" />
	<text x="336" y="130" style="font-family:Arial;font-size:11px;text-anchor:end" dominant-baseline="middle" transform="rotate(0, 336, 130)">A3</text>
	<line x1="230" y1="140" x2="240" y2="140" style="stroke:rgb(0, 0, 0);stroke-linecap:square;stroke-width:2" />
	<text x="244" y="140" style="font-family:Arial;font-size:11px;text-anchor:start" dominant-baseline="middle" transform="rotate(0, 244, 140)">D7</text>
	<line x1="340" y1="140" x2="350" y2="140" style="stroke:rgb(0, 0, 0);stroke-linecap:square;stroke-width:2" />
	<text x="336" y="140" style="font-family:Arial;font-size:11px;text-anchor:end" dominant-baseline="middle" transform="rotate(0, 336, 140)">A2</text>
	<line x1="230" y1="150" x2="240" y2="150" style="stroke:rgb(0, 0, 0);stroke-linecap:square;stroke-width:2" />
	<text x="244" y="150" style="font-family:Arial;font-size:11px;text-anchor:start" dominant-baseline="middle" transform="rotate(0, 244, 150)">D8</text>
	<line x1="340" y1="150" x2="350" y2="150" style="stroke:rgb(0, 0, 0);stroke-linecap:square;stroke-width:2" />
	<text x="336" y="150" style="font-family:Arial;font-size:11px;text-anchor:end" dominant-baseline="middle" transform="rotate(0, 336, 150)">A1</text>
	<line x1="230" y1="160" x2="240" y2="160" style="stroke:rgb(0, 0, 0);stroke-linecap:square;stroke-width:2" />
	<text x="244" y="160" style="font-family:Arial;font-size:11px;text-anchor:start" dominant-baseline="middle" transform="rotate(0, 244, 160)">D9</text>
	<line x1="340" y1="160" x2="350" y2="160" style="stroke:rgb(0, 0, 0);stroke-linecap:square;stroke-width:2" />
	<text x="336" y="160" style="font-family:Arial;font-size:11px;text-anchor:end" dominant-baseline="middle" transform="rotate(0, 336, 160)">A0</text>
	<line x1="230" y1="170" x2="240" y2="170" style="stroke:rgb(0, 0, 0);stroke-linecap:square;stroke-width:2" />
	<text x="244" y="170" style="font-family:Arial;font-size:11px;text-anchor:start" dominant-baseline="middle" transform="rotate(0, 244, 170)">D10</text>
	<line x1="340" y1="170" x2="350" y2="170" style="stroke:rgb(0, 0, 0);stroke-linecap:square;stroke-width:2" />
	<text x="336" y="170" style="font-family:Arial;font-size:11px;text-anchor:end" dominant-baseline="middle" transform="rotate(0, 336, 170)">AREF</text>
	<line x1="230" y1="180" x2="240" y2="180" style="stroke:rgb(0, 0, 0);stroke-linecap:square;stroke-width:2" />
	<text x="244" y="180" style="font-family:Arial;font-size:11px;text-anchor:start" dominant-baseline="middle" transform="rotate(0, 244, 180)">D11</text>
	<line x1="340" y1="180" x2="350" y2="180" style="stroke:rgb(0, 0, 0);stroke-linecap:square;stroke-width:2" />
	<text x="336" y="180" style="font-family:Arial;font-size:11px;text-anchor:end" dominant-baseline="middle" transform="rotate(0, 336, 180)">3V3</text>
	<line x1="230" y1="190" x2="240" y2="190" style="stroke:rgb(0, 0, 0);stroke-linecap:square;stroke-width:2" />
	<text x="244" y="190" style="font-family:Arial;font-size:11px;text-anchor:start" dominant-baseline="middle" transform="rotate(0, 244, 190)">D12</text>
	<line x1="340" y1="190" x2="350" y2="190" style="stroke:rgb(0, 0, 0);stroke-linecap:square;stroke-width:2" />
	<text x="336" y="190" style="font-family:Arial;font-size:11px;text-anchor:end" dominant-baseline="middle" transform="rotate(0, 336, 190)">D13</text>
	<ellipse cx="140" cy="360" rx="2" ry="2" style="fill-opacity:1;fill:rgb(0, 0, 0);stroke:rgb(0, 0, 0);stroke-width:2" />
	<ellipse cx="70" cy="360" rx="2" ry="2" style="fill-opacity:1;fill:rgb(0, 0, 0);stroke:rgb(0, 0, 0);stroke-width:2" />
</svg>